<?xml version="1.0" encoding="UTF-8"?>
<!DOCTYPE svg PUBLIC "-//W3C//DTD SVG 1.1//EN" "http://www.w3.org/Graphics/SVG/1.1/DTD/svg11.dtd">
<!-- Creator: CorelDRAW -->
<svg xmlns="http://www.w3.org/2000/svg" xml:space="preserve" width="50px" height="50px" version="1.1" style="shape-rendering:geometricPrecision; text-rendering:geometricPrecision; image-rendering:optimizeQuality; fill-rule:evenodd; clip-rule:evenodd"
viewBox="0 0 50 50"
 xmlns:xlink="http://www.w3.org/1999/xlink"
 xmlns:xodm="http://www.corel.com/coreldraw/odm/2003">
 <defs>
  <style type="text/css">
   <![CDATA[
    .str0 {stroke:black;stroke-width:0.025;stroke-miterlimit:22.9256}
    .fil1 {fill:none}
    .fil0 {fill:#FF733B}
   ]]>
  </style>
 </defs>
 <g id="Layer_x0020_1">
  <metadata id="CorelCorpID_0Corel-Layer"/>
  <g id="Logo_x0020_Persegi">
   <path class="fil0" d="M19.275 44.027c-6.269,-0.018 -10.317,-6.544 -7.659,-12.172 0.422,-0.894 0.904,-1.506 1.445,-2.127 0.379,-0.434 1.445,-1.317 1.987,-1.58l-0.005 -4.669c-0.213,0.04 -0.79,0.315 -1.019,0.415 -3.342,1.454 -6.018,4.568 -7.007,8.125l-0.014 0.049c-0.535,1.797 -0.607,3.852 -0.272,5.734 0.59,3.32 2.364,5.769 4.182,7.35 5.081,4.423 12.844,4.135 17.497,-0.701 1.012,-1.053 1.879,-2.218 2.589,-3.835 0.905,-2.061 1.056,-3.673 1.056,-5.895 0.001,-6.9 0.029,-13.845 -0.004,-20.737l-4.251 0.008c-0.036,7.139 0.005,14.304 -0.008,21.45 -0.008,4.832 -3.834,8.598 -8.517,8.585z"/>
   <path class="fil0" d="M19.373 14.531l0.003 21.847 4.219 -0.004 0 -20.481c0,-0.23 0,-0.46 0.001,-0.689 0.001,-0.117 -0.021,-0.558 0.045,-0.657 -0.081,-0.562 0.259,-1.943 0.421,-2.418 0.238,-0.694 0.549,-1.351 0.921,-1.902 4.914,-7.288 15.869,-3.566 15.637,4.914 -0.062,2.26 -1.133,4.485 -2.639,5.861 -0.858,0.785 -0.787,0.628 -1.604,1.209l0.004 4.68c0.478,-0.147 1.15,-0.471 1.571,-0.687 1.841,-0.94 3.615,-2.467 4.736,-4.192 0.648,-0.996 1.085,-1.8 1.489,-2.96 0.049,-0.139 0.095,-0.272 0.143,-0.42 0.002,-0.008 0.005,-0.016 0.007,-0.024l0.117 -0.417c0.742,-2.926 0.566,-5.715 -0.629,-8.479 -0.922,-2.132 -2.39,-3.811 -3.911,-4.987 -3.595,-2.78 -9.061,-3.68 -13.718,-1.188 -2.9,1.551 -5.14,4.132 -6.16,7.214 -0.301,0.909 -0.744,2.859 -0.653,3.78z"/>
   <rect class="fil1 str0" y="0.122" width="50" height="50"/>
  </g>
 </g>
</svg>
